PathFileType	4	(X/Y/Z)	C:\Users\WrightLab\Desktop\Jo\P1.2Trial2.trc
DataRate	CameraRate	NumFrames	NumMarkers	Units	OrigDataRate	OrigDataStartFrame	OrigNumFrames
100.00	100.00	       18	19	mm	100.00	420	       838
Frame#	Time	Headset_Front			Headset_Back			Headset_Left			Headset_Right			Left_Shoulder			Right_Shoulder			Sternum			C7			Left Elbow			Right Elbow			Left Wrist			Right Wrist			Left ASIS			Right ASIS			S2			Left Knee			Right Knee			Left Ankle			Right Ankle			
		X1	Y1	Z1	X2	Y2	Z2	X3	Y3	Z3	X4	Y4	Z4	X5	Y5	Z5	X6	Y6	Z6	X7	Y7	Z7	X8	Y8	Z8	X9	Y9	Z9	X10	Y10	Z10	X11	Y11	Z11	X12	Y12	Z12	X13	Y13	Z13	X14	Y14	Z14	X15	Y15	Z15	X16	Y16	Z16	X17	Y17	Z17	X18	Y18	Z18	X19	Y19	Z19	

420	4.190	-398.60706	1364.25208	230.21480	-568.29602	1506.63391	282.94064	-616.83893	1396.43396	158.27133	-446.04205	1280.91150	113.28607	-743.98688	1234.16418	197.80109	-397.79834	1246.25745	419.25974	-529.41058	1143.44824	233.82417	-630.20886	1319.98022	403.44598	-764.77197	960.10736	116.40747	-370.01974	1029.25208	562.22034	-591.92847	838.16809	-12.97811	-320.73755	778.67963	496.63681	-434.01248	839.10760	350.14178	-675.87524	845.46301	202.66661	-692.43060	937.90485	520.03723	-728.66772	423.40164	277.46973	-384.52753	466.25122	305.72852	-791.55554	86.50718	399.89639	-308.94495	158.19467	244.61192	
421	4.200	-392.82230	1362.34497	224.24974	-561.89874	1505.00989	276.62091	-611.55530	1395.27185	152.18262	-440.35016	1278.56323	106.99905	-737.75299	1232.42065	193.04977	-390.40845	1243.76135	409.40024	-523.57214	1141.07837	228.51613	-623.81165	1318.57825	397.87079	-757.96283	958.04059	112.09707	-363.45490	1027.68384	557.03046	-586.00677	834.76831	-17.55200	-316.24356	777.02808	492.47537	-428.97507	837.15710	343.26880	-671.75897	844.04486	198.60606	-685.56555	936.87762	515.69635	-727.22961	422.09628	274.01273	-380.73941	463.10635	298.57654	-791.33685	86.50482	400.16943	-306.31732	155.31419	239.96039	
422	4.210	-386.34866	1360.00720	217.87848	-555.13452	1503.05908	270.69803	-604.88861	1392.09583	147.11397	-434.71292	1276.57544	100.78856	-731.17474	1230.28552	187.42328	-384.12573	1242.66528	405.22021	-516.98322	1138.69275	224.19131	-617.10870	1317.65381	392.27802	-751.11011	955.75208	108.20366	-356.11578	1026.37805	551.22772	-580.11444	832.04132	-22.26343	-309.81024	775.12048	490.12488	-424.18793	834.94482	338.26559	-667.93213	842.03119	194.17094	-678.50531	935.69843	511.02094	-726.00983	421.60828	269.90866	-376.09525	461.49292	292.14441	-791.02191	86.89952	399.96191	-304.28024	150.54791	236.74165	
423	4.220	-379.77487	1358.31592	210.43376	-548.60443	1501.36621	264.81241	-599.12347	1390.57678	141.49559	-428.71594	1274.63562	94.07661	-724.68402	1228.22363	182.34830	-377.84195	1241.13501	398.96667	-510.64209	1137.02563	218.20728	-609.44440	1315.75964	386.40237	-744.55042	952.77777	104.54946	-348.77963	1025.56763	545.62201	-573.13672	828.67804	-26.32622	-304.17633	772.09509	485.39319	-419.51996	833.50757	332.02884	-662.37067	840.21387	191.17778	-671.64508	934.92377	506.84750	-723.48444	420.55417	265.47818	-371.14990	459.43225	284.92593	-790.56543	87.41664	399.39978	-303.21152	145.27751	234.55554	
424	4.230	-373.50415	1356.24695	204.76059	-541.77643	1499.17346	258.71533	-592.74347	1388.61780	135.96043	-423.10370	1272.79895	88.08270	-718.04559	1226.21082	176.90695				-503.81100	1134.53772	212.95142	-602.57672	1314.27808	381.11444	-737.44141	950.73206	100.41521	-341.89029	1023.06372	538.69940	-566.66815	826.17487	-31.36634	-298.26324	770.35168	481.30994	-414.83401	830.65875	327.17349	-657.70337	839.01752	187.29039	-664.57770	933.86188	502.28842	-721.11188	419.41632	261.24323	-368.49298	455.60553	279.29510	-790.13348	88.04915	398.68341	-302.45496	140.24596	232.73283	
425	4.240	-367.03726	1354.03064	198.41286	-534.83704	1497.22534	252.57269	-586.17651	1386.70801	130.16989	-416.84723	1270.73669	82.11242	-711.43091	1224.27417	171.62874	-361.99493	1238.35254	384.30136	-497.31540	1132.47412	207.70773	-595.05438	1312.92688	375.32782	-730.37457	948.39240	96.61983	-335.41550	1021.60931	532.79388	-560.22180	824.13403	-37.38956	-291.51224	767.90393	476.65921	-409.50244	829.39294	320.71072	-652.20709	837.47827	182.77133	-658.10706	932.60339	497.54120	-718.27435	419.08145	256.82321	-364.12143	452.66467	271.95584	-789.61682	88.77231	398.12250	-299.64011	136.57935	231.91721	
426	4.250	-360.47076	1352.33789	191.36990	-528.00842	1495.87964	247.20284	-579.62750	1384.42908	124.92340	-410.93298	1268.72290	75.52879	-704.15558	1222.43848	167.41422	-354.53165	1236.92505	380.67499	-490.40854	1130.02490	201.99368	-587.25574	1311.60034	369.95212	-723.23834	945.82031	93.19750	-327.38211	1020.08087	526.73523	-550.47845	818.02441	-34.97638	-285.24448	766.11444	472.80161	-403.76822	827.86090	313.24246	-647.01794	835.55969	178.95314	-650.50183	931.46082	492.55023	-714.46930	417.79276	251.94470	-360.22598	448.95575	266.49417	-788.96838	89.74298	397.08795	-295.52759	135.00090	229.65996	
427	4.260	-354.86136	1350.54089	183.54364	-520.48413	1494.60046	240.53896	-573.18500	1382.59058	119.56594	-404.78998	1267.11267	68.52007	-697.02863	1220.48950	163.25383	-346.27493	1234.64087	374.22787	-483.66711	1128.10596	196.66228	-579.39960	1310.36182	363.83197	-715.71472	943.78223	89.86506	-319.38654	1018.28241	521.21466	-543.76703	816.23492	-40.07411	-278.53485	763.35333	468.29370	-397.62799	825.30359	307.97995	-640.79053	833.88226	175.98387	-643.13892	930.46936	488.30786	-710.65729	416.76712	247.55634	-356.02411	446.71774	262.62256	-788.45276	90.81550	395.98672	-291.88004	134.59341	225.25819	
428	4.270	-348.07205	1348.73291	176.87717	-512.88177	1493.00391	234.11792	-566.94641	1381.29858	113.37738	-398.46140	1265.20520	62.13776	-690.25201	1218.75232	158.35146	-338.51736	1231.26038	366.12772	-476.61340	1126.08252	191.09186	-571.46326	1309.54956	357.69745	-708.20605	941.23059	86.66182	-310.56842	1017.37231	516.41162	-536.78461	813.16998	-44.59085	-271.92340	761.30566	464.90918	-391.54977	822.84589	302.82990	-634.43585	831.95410	172.31383	-636.21692	929.89532	483.75616	-706.54755	415.55554	242.80917	-350.59464	444.80746	257.82883	-788.00195	92.58939	393.74777	-288.08725	133.21590	220.34956	
429	4.280	-341.65829	1347.04517	170.57381	-505.78534	1491.72266	228.17360	-560.81488	1381.15002	106.22171	-392.32565	1263.48083	55.93710	-683.21783	1217.11304	152.40338	-330.96854	1230.35535	360.82971	-469.85117	1124.55872	185.25508	-564.10168	1308.41724	352.63092	-700.39465	938.95679	82.74885	-303.18173	1015.80560	510.23477	-530.04889	810.89258	-49.03728	-264.67206	759.31262	459.39490	-385.34995	820.98718	296.77448	-627.91791	831.36731	167.95763	-629.13867	929.83484	478.87466	-702.09241	414.68121	237.51025	-344.65680	443.47440	253.08318	-787.66492	93.80915	392.81326	-283.99503	130.49484	218.00688	
430	4.290	-334.45352	1345.47852	162.59492	-498.05417	1490.68799	221.71373	-553.97021	1379.83630	100.77235	-385.84122	1261.57813	48.91647	-676.55328	1215.71228	147.54587	-321.88788	1229.47546	357.71658	-463.16092	1122.99146	179.84387	-555.92444	1307.75598	346.62387	-692.15900	937.32135	79.23581	-295.68073	1014.10779	503.85620	-522.96838	807.83405	-54.18869	-257.15857	757.58191	454.47150	-378.43188	819.94513	290.97144	-621.21326	828.98004	164.64268	-621.46210	929.42725	473.53915	-698.42969	413.89560	233.22238	-339.42145	441.56845	248.73869	-787.46796	94.91886	392.59863	-282.39182	127.27240	216.09593	
431	4.300	-325.67523	1344.65125	156.13754	-490.47751	1489.44434	215.26109	-546.93329	1378.37207	94.67317	-379.34763	1260.51794	41.66768	-669.67133	1214.58142	141.83180	-313.35892	1228.32007	349.80768	-456.15466	1121.70105	173.68086	-548.17401	1307.33667	340.82446	-683.97083	935.23993	76.18396	-288.16315	1012.49817	495.14279	-516.37354	805.71069	-58.51437	-250.33615	755.33295	449.11505	-371.99481	818.70953	285.53024	-615.78815	828.32843	160.95921	-613.18677	928.61676	469.11530	-693.83038	412.50476	228.57005	-334.66772	439.90451	244.52838	-787.01733	97.20236	389.66702	-280.27023	125.35011	212.52113	
432	4.310	-318.66565	1343.02161	148.68860	-482.56839	1488.68652	208.35628	-539.94836	1377.19214	88.93038	-373.35870	1258.92419	35.63910	-662.54602	1213.75647	136.44008	-306.92245	1226.60754	344.61920	-449.23560	1120.39673	167.89600	-540.82007	1307.38013	334.44821	-675.56750	933.83636	72.05244	-280.64511	1011.12000	488.59586	-509.69055	802.81787	-62.45547	-243.02116	752.47516	443.92438	-365.79013	817.24377	281.91180	-609.64648	827.27100	157.52446	-606.34467	929.68829	464.38553	-689.28400	411.45813	223.57892	-330.17093	438.42776	240.49832	-786.57343	98.84248	388.07358	-279.07721	122.65862	212.71884	
433	4.320	-311.28851	1341.96558	141.24615	-474.51010	1488.25098	201.38478	-532.19934	1376.91748	84.57890	-367.24112	1257.81213	28.35750	-655.34332	1212.67896	130.73483	-298.96667	1225.76819	336.38104	-442.60272	1119.18958	162.31664	-532.87164	1307.54431	327.85431	-667.20569	932.53503	67.96141	-273.17633	1009.29340	482.05020	-503.42297	800.73010	-66.57294	-234.72626	751.72296	439.06799	-360.30365	815.94244	278.27164	-604.11908	826.22797	153.39888	-599.01392	929.93866	459.35419	-684.66162	410.40308	218.32773	-325.86761	438.21182	236.76208	-786.26135	99.70528	387.93570	-278.31635	121.47231	211.96806	
434	4.330	-305.57401	1340.73425	133.87776	-466.53522	1487.42969	194.71918	-525.11102	1376.08203	77.59029	-360.29471	1256.65076	21.84538	-648.28314	1212.26721	123.95660	-291.54517	1224.78406	328.42322	-435.66290	1118.37610	156.52686	-526.13660	1308.18542	319.77112	-658.92334	931.48102	64.02808	-266.24042	1008.45929	474.48291	-497.01355	798.80811	-71.60110	-227.48428	750.07440	433.02322	-354.63022	816.39233	272.96301	-596.24054	825.73883	149.76631	-592.47803	931.54535	454.42044	-680.30963	409.91736	213.06377	-321.41537	440.10605	232.57138	-785.27502	102.71667	383.90686	-277.42307	121.08508	210.91855	
435	4.340	-298.42270	1339.61365	126.53494	-458.69922	1487.40295	187.68056	-517.98505	1375.58362	71.21165	-353.75119	1255.65613	14.21479	-640.98676	1212.11389	115.95613	-286.24957	1224.21460	319.52386	-428.66348	1117.62402	150.65230	-518.64337	1308.80408	314.01862	-650.89105	930.28925	59.82547	-258.44196	1008.14539	467.22449	-490.27161	796.67499	-75.83753	-219.95930	748.86285	427.98584	-349.19644	815.31299	270.13641	-590.95917	825.31635	145.05464	-586.62720	933.53595	449.62003	-675.80963	410.18280	207.61552	-317.17520	443.05811	228.51927	-784.59705	104.25780	383.32474	-276.25787	121.21548	209.89560	
436	4.350	-290.17249	1338.68030	119.17213	-451.12170	1486.77454	180.47363	-511.04898	1375.52808	64.34417	-347.36694	1254.33228	7.89452	-633.36646	1211.44312	109.43468	-279.59732	1224.39514	311.73254	-422.18393	1116.47937	145.62105	-512.08813	1309.25317	307.05240	-642.75146	929.59412	56.25309	-251.76764	1008.03687	460.61227	-483.48642	793.33203	-78.41924	-212.25436	747.81427	422.87479	-343.53397	815.64807	267.80151	-585.41821	825.13214	141.90701	-580.73523	936.08325	444.65430	-670.44281	410.05222	202.17244	-313.19333	445.67706	224.60809	-783.35004	108.18240	378.43472	-275.42917	120.78809	208.47641	
437	4.360	-283.08667	1337.64746	111.77686	-443.53403	1486.16528	173.35915	-505.10971	1375.30103	56.77840	-341.04428	1252.38232	1.49641	-625.85870	1211.33984	102.87863	-272.83383	1223.37585	306.45978	-415.64209	1115.49902	139.73737	-505.45251	1311.03833	300.22202	-634.90869	928.65338	51.45282	-245.11638	1007.83636	452.57208	-477.41312	791.84149	-82.35641	-203.75339	747.34583	417.44058	-338.54443	815.84198	264.42517	-579.29211	825.46680	137.63745	-575.56244	938.58875	439.25665	-664.62830	411.11484	195.79205	-308.96408	447.29953	221.20410	-782.40533	110.27218	377.43240	-275.24438	120.35033	207.57176	
